# Blender v2.65 (sub 0) OBJ File: 'testcube.blend'
# www.blender.org
o Cube
v 0.089386 0.089386 -0.089386
v 0.089386 0.089386 0.089386
v -0.089386 0.089386 0.089386
v -0.089386 0.089386 -0.089386
v 0.089386 -0.089386 -0.089386
v 0.089386 -0.089386 0.089386
v -0.089386 -0.089386 0.089386
v -0.089386 -0.089386 -0.089386
vt 0.667668 0.332332
vt 0.998999 0.332332
vt 0.998999 0.001001
vt 0.667668 0.001001
vt 0.332332 0.001001
vt 0.001001 0.001001
vt 0.001001 0.332332
vt 0.332332 0.332332
vt 0.332332 0.334334
vt 0.001001 0.334334
vt 0.001001 0.665666
vt 0.332332 0.665666
vt 0.334334 0.332332
vt 0.665666 0.332332
vt 0.665666 0.001001
vt 0.334334 0.001001
vt 0.665666 0.334334
vt 0.334334 0.334334
vt 0.334334 0.665666
vt 0.665666 0.665666
vt 0.998999 0.334334
vt 0.667668 0.334334
vt 0.667668 0.665666
vt 0.998999 0.665666
vn -1.000000 0.000000 0.000000
vn 0.000000 -0.000000 -1.000000
vn 1.000000 0.000000 0.000000
vn 0.000000 -0.000000 1.000000
vn 0.000000 -1.000000 0.000000
vn 0.000000 1.000000 0.000000
s off
f 2/1/1 1/2/1 5/3/1
f 2/1/1 5/3/1 6/4/1
f 6/5/2 7/6/2 3/7/2
f 6/5/2 3/7/2 2/8/2
f 7/9/3 8/10/3 4/11/3
f 7/9/3 4/11/3 3/12/3
f 1/13/4 4/14/4 8/15/4
f 1/13/4 8/15/4 5/16/4
f 1/17/5 2/18/5 3/19/5
f 1/17/5 3/19/5 4/20/5
f 8/21/6 7/22/6 6/23/6
f 8/21/6 6/23/6 5/24/6
